HIERARCHY
ROOT Hips
{
	OFFSET 0.000000 83.214638 0.000000
	CHANNELS 6 Xposition Yposition Zposition Xrotation Yrotation Zrotation
	JOINT Pelvis
	{
		OFFSET 0.000000 0.000000 0.000000
		CHANNELS 3 Xrotation Yrotation Zrotation
		JOINT LeftUpLeg
		{
			OFFSET 8.479700 -4.795502 -0.379100
			CHANNELS 3 Xrotation Yrotation Zrotation
			JOINT LeftLeg
			{
				OFFSET 0.024144 -32.555107 0.112900
				CHANNELS 3 Xrotation Yrotation Zrotation
				JOINT LeftFoot
				{
					OFFSET -0.024144 -32.638630 -3.012600
					CHANNELS 3 Xrotation Yrotation Zrotation
					JOINT LeftToeBase
					{
						OFFSET 0.970200 -13.225400 11.864200
						CHANNELS 3 Xrotation Yrotation Zrotation
						End Site
						{
							OFFSET 0.000000 12.319262 0.000000
						}
					}
					JOINT LFootTongue
					{
						OFFSET 1.142400 -1.059800 6.665200
						CHANNELS 3 Xrotation Yrotation Zrotation
						End Site
						{
							OFFSET 0.000000 12.319262 0.000000
						}
					}
				}
				JOINT LeftPantLeg
				{
					OFFSET 0.918482 -16.533964 -2.284700
					CHANNELS 3 Xrotation Yrotation Zrotation
					End Site
					{
						OFFSET 0.350399 24.744368 0.000000
					}
				}
			}
		}
		JOINT RightUpLeg
		{
			OFFSET -8.479700 -4.795502 -0.379100
			CHANNELS 3 Xrotation Yrotation Zrotation
			JOINT RightLeg
			{
				OFFSET -0.023144 -32.555092 0.112900
				CHANNELS 3 Xrotation Yrotation Zrotation
				JOINT RightFoot
				{
					OFFSET 0.023144 -32.638641 -3.012700
					CHANNELS 3 Xrotation Yrotation Zrotation
					JOINT RightToeBase
					{
						OFFSET -0.970200 -13.225400 11.864200
						CHANNELS 3 Xrotation Yrotation Zrotation
						End Site
						{
							OFFSET 0.000000 12.319244 0.000000
						}
					}
					JOINT RFootTongue
					{
						OFFSET -1.142200 -1.059800 6.665200
						CHANNELS 3 Xrotation Yrotation Zrotation
						End Site
						{
							OFFSET 0.000000 12.319243 0.000000
						}
					}
				}
				JOINT RightPantLeg
				{
					OFFSET -0.919482 -16.533978 -2.284800
					CHANNELS 3 Xrotation Yrotation Zrotation
					End Site
					{
						OFFSET -0.350400 24.744419 0.000000
					}
				}
			}
		}
	}
	JOINT Spine
	{
		OFFSET 0.000000 7.722000 1.166200
		CHANNELS 3 Xrotation Yrotation Zrotation
		JOINT Spine1
		{
			OFFSET 0.000000 12.024101 0.248800
			CHANNELS 3 Xrotation Yrotation Zrotation
			JOINT Spine2
			{
				OFFSET 0.000000 11.502998 -0.491200
				CHANNELS 3 Xrotation Yrotation Zrotation
				JOINT Neck
				{
					OFFSET 0.000000 18.430702 -3.123100
					CHANNELS 3 Xrotation Yrotation Zrotation
					JOINT Head
					{
						OFFSET 0.000000 9.051102 1.034000
						CHANNELS 3 Xrotation Yrotation Zrotation
						JOINT HairB
						{
							OFFSET 0.208400 24.786102 24.822300
							CHANNELS 3 Xrotation Yrotation Zrotation
							End Site
							{
								OFFSET 0.000000 32.263779 0.000000
							}
						}
						JOINT HairA
						{
							OFFSET -7.081100 24.428299 23.196600
							CHANNELS 3 Xrotation Yrotation Zrotation
							End Site
							{
								OFFSET 0.000000 32.263779 0.000000
							}
						}
						JOINT Hat
						{
							OFFSET 16.728800 15.048294 -15.439601
							CHANNELS 3 Xrotation Yrotation Zrotation
							End Site
							{
								OFFSET 0.000000 32.263779 0.000000
							}
						}
					}
				}
				JOINT LeftShoulder
				{
					OFFSET 6.197800 13.665199 -4.064700
					CHANNELS 3 Xrotation Yrotation Zrotation
					JOINT LeftArm
					{
						OFFSET 7.778100 -0.187103 -1.709300
						CHANNELS 3 Xrotation Yrotation Zrotation
						JOINT LeftForeArm
						{
							OFFSET 22.049376 0.000000 0.000000
							CHANNELS 3 Xrotation Yrotation Zrotation
							JOINT LeftHand
							{
								OFFSET 23.009392 0.000000 0.000000
								CHANNELS 3 Xrotation Yrotation Zrotation
								JOINT LeftHandThumb1
								{
									OFFSET 3.507191 -2.063065 3.133727
									CHANNELS 3 Xrotation Yrotation Zrotation
									JOINT LeftHandThumb2
									{
										OFFSET 3.101337 -1.790558 1.790558
										CHANNELS 3 Xrotation Yrotation Zrotation
										JOINT LeftHandThumb3
										{
											OFFSET 3.058640 -1.765907 1.765906
											CHANNELS 3 Xrotation Yrotation Zrotation
											End Site
											{
												OFFSET -0.415260 3.926476 -0.049563
											}
										}
									}
								}
								JOINT LeftHandIndex1
								{
									OFFSET 11.334419 -0.901459 3.706815
									CHANNELS 3 Xrotation Yrotation Zrotation
									JOINT LeftHandIndex2
									{
										OFFSET 3.283112 0.000000 0.000000
										CHANNELS 3 Xrotation Yrotation Zrotation
										JOINT LeftHandIndex3
										{
											OFFSET 3.323853 0.000000 0.000000
											CHANNELS 3 Xrotation Yrotation Zrotation
											End Site
											{
												OFFSET -1.135597 3.097809 0.402452
											}
										}
									}
								}
								JOINT LeftHandMiddle1
								{
									OFFSET 11.335861 0.000000 0.000000
									CHANNELS 3 Xrotation Yrotation Zrotation
									JOINT LeftHandMiddle2
									{
										OFFSET 3.410492 0.000000 0.000000
										CHANNELS 3 Xrotation Yrotation Zrotation
										JOINT LeftHandMiddle3
										{
											OFFSET 3.312172 0.000000 0.000000
											CHANNELS 3 Xrotation Yrotation Zrotation
											End Site
											{
												OFFSET -1.150200 3.080154 0.400270
											}
										}
									}
								}
								JOINT LeftHandRing1
								{
									OFFSET 11.514786 -0.013176 -3.003090
									CHANNELS 3 Xrotation Yrotation Zrotation
									JOINT LeftHandRing2
									{
										OFFSET 3.053307 0.000000 0.000000
										CHANNELS 3 Xrotation Yrotation Zrotation
										JOINT LeftHandRing3
										{
											OFFSET 3.295807 0.000000 0.000000
											CHANNELS 3 Xrotation Yrotation Zrotation
											End Site
											{
												OFFSET -1.281006 3.013344 0.375733
											}
										}
									}
								}
								JOINT LeftHandPinky1
								{
									OFFSET 10.518692 -0.960396 -5.730441
									CHANNELS 3 Xrotation Yrotation Zrotation
									JOINT LeftHandPinky2
									{
										OFFSET 2.861649 0.000000 0.000000
										CHANNELS 3 Xrotation Yrotation Zrotation
										JOINT LeftHandPinky3
										{
											OFFSET 2.863380 0.000000 0.000000
											CHANNELS 3 Xrotation Yrotation Zrotation
											End Site
											{
												OFFSET -0.843597 2.711159 0.369971
											}
										}
									}
								}
							}
							JOINT LSleeve
							{
								OFFSET 6.676277 -0.344902 -1.011730
								CHANNELS 3 Xrotation Yrotation Zrotation
								End Site
								{
									OFFSET 0.000000 14.885353 0.000000
								}
							}
						}
					}
				}
				JOINT RightShoulder
				{
					OFFSET -6.197800 13.665199 -4.064700
					CHANNELS 3 Xrotation Yrotation Zrotation
					JOINT RightArm
					{
						OFFSET -7.778100 -0.187103 -1.709300
						CHANNELS 3 Xrotation Yrotation Zrotation
						JOINT RightForeArm
						{
							OFFSET -22.049376 0.000000 0.000000
							CHANNELS 3 Xrotation Yrotation Zrotation
							JOINT RightHand
							{
								OFFSET -23.009392 0.000000 0.000000
								CHANNELS 3 Xrotation Yrotation Zrotation
								JOINT RightHandThumb1
								{
									OFFSET -3.507191 -2.063065 3.133727
									CHANNELS 3 Xrotation Yrotation Zrotation
									JOINT RightHandThumb2
									{
										OFFSET -3.101337 -1.790558 1.790558
										CHANNELS 3 Xrotation Yrotation Zrotation
										JOINT RightHandThumb3
										{
											OFFSET -3.058640 -1.765907 1.765906
											CHANNELS 3 Xrotation Yrotation Zrotation
											End Site
											{
												OFFSET 0.415260 3.926476 -0.049563
											}
										}
									}
								}
								JOINT RightHandIndex1
								{
									OFFSET -11.334419 -0.901459 3.706815
									CHANNELS 3 Xrotation Yrotation Zrotation
									JOINT RightHandIndex2
									{
										OFFSET -3.283112 0.000000 0.000000
										CHANNELS 3 Xrotation Yrotation Zrotation
										JOINT RightHandIndex3
										{
											OFFSET -3.323853 0.000000 0.000000
											CHANNELS 3 Xrotation Yrotation Zrotation
											End Site
											{
												OFFSET 1.135597 3.097809 0.402452
											}
										}
									}
								}
								JOINT RightHandMiddle1
								{
									OFFSET -11.335861 0.000000 0.000000
									CHANNELS 3 Xrotation Yrotation Zrotation
									JOINT RightHandMiddle2
									{
										OFFSET -3.410492 0.000000 0.000000
										CHANNELS 3 Xrotation Yrotation Zrotation
										JOINT RightHandMiddle3
										{
											OFFSET -3.312172 0.000000 0.000000
											CHANNELS 3 Xrotation Yrotation Zrotation
											End Site
											{
												OFFSET 1.150200 3.080154 0.400270
											}
										}
									}
								}
								JOINT RightHandRing1
								{
									OFFSET -11.514786 -0.013176 -3.003090
									CHANNELS 3 Xrotation Yrotation Zrotation
									JOINT RightHandRing2
									{
										OFFSET -3.053307 0.000000 0.000000
										CHANNELS 3 Xrotation Yrotation Zrotation
										JOINT RightHandRing3
										{
											OFFSET -3.295807 0.000000 0.000000
											CHANNELS 3 Xrotation Yrotation Zrotation
											End Site
											{
												OFFSET 1.281006 3.013344 0.375733
											}
										}
									}
								}
								JOINT RightHandPinky1
								{
									OFFSET -10.518692 -0.960396 -5.730441
									CHANNELS 3 Xrotation Yrotation Zrotation
									JOINT RightHandPinky2
									{
										OFFSET -2.861649 0.000000 0.000000
										CHANNELS 3 Xrotation Yrotation Zrotation
										JOINT RightHandPinky3
										{
											OFFSET -2.863380 0.000000 0.000000
											CHANNELS 3 Xrotation Yrotation Zrotation
											End Site
											{
												OFFSET 0.843597 2.711159 0.369971
											}
										}
									}
								}
							}
							JOINT RSleeve
							{
								OFFSET -6.676277 -0.344902 -1.011730
								CHANNELS 3 Xrotation Yrotation Zrotation
								End Site
								{
									OFFSET 0.000000 14.885353 0.000000
								}
							}
						}
					}
				}
				JOINT Backpack
				{
					OFFSET 0.000000 -2.471497 36.677502
					CHANNELS 3 Xrotation Yrotation Zrotation
					End Site
					{
						OFFSET 0.000000 20.427315 0.000000
					}
				}
				JOINT Hood
				{
					OFFSET 0.000000 18.754097 -10.431000
					CHANNELS 3 Xrotation Yrotation Zrotation
					JOINT Hood1
					{
						OFFSET 0.000000 -5.011002 -7.685901
						CHANNELS 3 Xrotation Yrotation Zrotation
						End Site
						{
							OFFSET 0.000000 9.175140 0.000000
						}
					}
				}
				JOINT LHoodieString
				{
					OFFSET 5.250500 16.397697 3.089900
					CHANNELS 3 Xrotation Yrotation Zrotation
					JOINT LHoodieString1
					{
						OFFSET 0.257700 -6.364304 3.694600
						CHANNELS 3 Xrotation Yrotation Zrotation
						JOINT LHoodieString2
						{
							OFFSET 0.000000 -9.643799 2.679100
							CHANNELS 3 Xrotation Yrotation Zrotation
							End Site
							{
								OFFSET 0.000000 10.009018 0.000000
							}
						}
					}
				}
				JOINT RHoodieString
				{
					OFFSET -5.250500 16.397697 3.089900
					CHANNELS 3 Xrotation Yrotation Zrotation
					JOINT RHoodieString1
					{
						OFFSET -0.257700 -6.364304 3.694600
						CHANNELS 3 Xrotation Yrotation Zrotation
						JOINT RHoodieString2
						{
							OFFSET 0.000000 -9.643799 2.679100
							CHANNELS 3 Xrotation Yrotation Zrotation
							End Site
							{
								OFFSET 0.000000 10.009018 0.000000
							}
						}
					}
				}
			}
			JOINT LBackpack_Strap
			{
				OFFSET 15.223200 -7.719803 -6.610900
				CHANNELS 3 Xrotation Yrotation Zrotation
				End Site
				{
					OFFSET 0.000000 16.040596 0.000000
				}
			}
			JOINT RBackpack_Strap
			{
				OFFSET -15.223000 -7.719803 -6.610900
				CHANNELS 3 Xrotation Yrotation Zrotation
				End Site
				{
					OFFSET 0.000000 16.040596 0.000000
				}
			}
		}
	}
	JOINT BoyFacialAnim_Joint
	{
		OFFSET 1.000000 -82.208099 -1.550900
		CHANNELS 3 Xrotation Yrotation Zrotation
		End Site
		{
			OFFSET 0.000000 30.012791 0.000000
		}
	}
}
MOTION
Frames: 4
Frame Time: 0.016667
0.460267 81.901810 -0.765659 2.912558 -28.989358 1.159686 -0.000000 -0.000000 0.000000 -17.362061 18.227265 10.847519 16.421173 13.219595 -0.948901 -1.373484 -4.093624 -4.989852 0.000000 0.000000 0.000000 0.000000 0.000000 -0.000000 0.000000 -0.000000 -0.000000 -8.111739 -1.524722 -9.109931 10.371428 9.490350 0.825514 -5.501222 -0.869598 7.455469 0.000000 -0.000000 0.000000 0.000000 -0.000000 0.000000 -0.000000 -0.000001 0.000000 7.836228 -0.358446 -2.652036 1.099251 -0.880568 2.383463 1.108682 -0.590455 2.446367 -3.842068 18.019055 -6.496396 -6.332479 13.021552 0.301483 0.000000 -0.000000 -0.000000 0.000000 -0.000000 -0.000000 0.000000 -0.000000 -0.000000 -0.057390 -8.759440 -0.061012 -55.249749 0.330145 -41.449908 11.585994 -65.829527 13.007218 -50.191167 12.353358 4.611933 17.542482 -5.723957 -12.930217 10.850515 26.127726 8.644810 -0.000000 -0.000000 -0.000001 13.974942 1.202191 -55.004326 0.370822 1.161751 -65.441900 0.000001 -0.000000 -0.000005 7.504732 1.174510 -63.778517 1.807849 1.475683 -64.567896 -0.000000 0.000000 0.000000 8.574332 2.179112 -75.149006 -0.207649 1.009257 -57.855056 0.000000 0.000001 -0.000004 10.030099 13.637035 -84.750223 0.877127 0.062332 -64.595503 0.000001 0.000000 0.000002 0.000004 0.000001 0.000000 4.849289 7.760145 5.560448 -0.933501 -2.176877 61.845662 11.299286 18.943436 -3.987520 -0.459215 6.620151 5.830122 15.788515 -2.734473 -17.205858 -2.198305 -31.113561 7.361271 -0.000001 -0.000003 0.000001 2.374670 -3.640939 8.487434 -2.147349 -2.473152 18.673266 -0.000000 0.000001 0.000000 -1.990502 -5.687065 13.662156 0.282187 -5.088230 26.988296 -0.000000 0.000000 0.000002 -3.248684 -8.544127 11.772730 4.043113 -4.063248 33.263636 -0.000001 -0.000001 0.000002 -6.473313 -11.333584 23.262801 10.715342 -2.558941 34.822859 0.000000 -0.000000 -0.000001 -0.000001 -0.000000 0.000001 0.000001 -0.000000 -0.000000 0.000001 -0.000000 -0.000000 0.000001 -0.000000 -0.000000 0.000001 -0.000000 -0.000000 0.000001 -0.000000 -0.000000 0.000000 -0.000000 -0.000000 0.000001 -0.000000 -0.000000 0.000001 -0.000000 -0.000000 0.000000 -0.000000 -0.000000 0.000001 0.000002 -0.000001 0.000001 0.000002 -0.000001 -0.000000 -0.000000 0.000000 
0.527247 81.868484 -0.865615 2.958197 -28.861251 1.134899 -0.000000 -0.000002 -0.000000 -17.728147 18.197051 10.943304 16.766487 13.771167 -0.910905 -1.440046 -4.797454 -5.000977 0.000000 -0.000000 -0.000000 0.000000 -0.000000 -0.000000 -0.000000 0.000000 -0.000000 -8.388489 -1.522097 -9.063098 10.724213 9.290474 0.785687 -5.619348 -0.863230 7.442521 0.000000 -0.000000 -0.000000 0.000000 -0.000000 -0.000000 0.000000 0.000000 0.000001 7.802631 -0.357078 -2.652440 1.074050 -0.871352 2.364665 1.083491 -0.588031 2.427852 -3.746777 18.050076 -6.586954 -6.429085 13.000708 0.448108 -0.000000 0.000000 -0.000000 -0.000000 0.000000 -0.000000 -0.000000 0.000000 -0.000000 -0.004174 -8.315560 -0.161324 -55.335259 0.717924 -41.094817 10.897072 -65.775418 12.310735 -50.186157 12.360834 4.470056 17.542484 -5.723958 -12.930222 10.824662 26.057622 8.641508 -0.000001 -0.000000 -0.000000 13.985142 1.290472 -55.047377 0.371070 1.161926 -65.457514 -0.000004 -0.000000 -0.000000 7.465919 1.197239 -63.754714 1.806383 1.476416 -64.514217 -0.000001 0.000001 0.000002 8.571875 2.201320 -75.001290 -0.208894 1.005547 -57.694540 -0.000000 0.000001 -0.000002 9.971804 13.637617 -84.708389 0.873406 0.061187 -64.420746 -0.000000 -0.000000 -0.000002 0.000000 -0.000001 0.000001 4.851985 7.811877 5.709653 -0.844150 -2.132280 61.674614 11.420376 18.937654 -4.006116 -0.452340 6.527040 5.826807 15.788515 -2.734472 -17.205854 -2.106372 -31.245657 7.373543 0.000000 -0.000002 0.000001 2.374296 -3.644135 8.645124 -2.147459 -2.473288 18.952867 -0.000001 -0.000001 0.000003 -1.989618 -5.689721 13.819834 0.282328 -5.090149 27.267973 -0.000001 0.000000 -0.000000 -3.249560 -8.547468 11.930102 4.042379 -4.063375 33.543209 -0.000001 0.000000 0.000002 -6.473351 -11.335257 23.420401 10.719500 -2.558905 35.102722 0.000001 -0.000001 0.000000 -0.000001 0.000000 -0.000001 0.000001 0.000002 -0.000000 0.000001 0.000002 -0.000000 0.000001 0.000002 -0.000000 0.000001 0.000002 -0.000000 0.000001 0.000002 -0.000001 -0.000000 0.000000 0.000000 0.000001 0.000002 -0.000000 0.000001 0.000002 -0.000001 -0.000000 0.000000 0.000000 0.000000 0.000001 -0.000001 0.000000 0.000001 -0.000001 -0.000000 -0.000002 -0.000000 
0.602386 81.833351 -0.957849 3.001533 -28.711776 1.102062 -0.000000 -0.000002 0.000000 -18.111703 18.194306 11.046292 17.135780 14.320374 -0.873591 -1.524845 -5.550333 -5.005266 -0.000000 0.000000 0.000000 -0.000000 0.000000 0.000000 -0.000000 0.000000 0.000000 -8.641030 -1.581700 -9.000692 11.045656 9.062969 0.703693 -5.729381 -0.840848 7.476084 -0.000000 -0.000002 0.000000 -0.000000 -0.000002 0.000000 -0.000000 0.000001 -0.000000 7.765658 -0.348474 -2.643252 1.051469 -0.856355 2.346640 1.060733 -0.578900 2.409568 -4.035126 18.103334 -6.236031 -6.261312 13.166570 0.315301 -0.000000 -0.000000 0.000000 -0.000000 -0.000000 0.000000 -0.000000 -0.000000 0.000000 -0.095201 -7.833575 -0.261091 -55.289060 1.044018 -40.597528 10.451496 -65.790424 11.849302 -50.183814 12.334660 4.429951 17.542467 -5.723983 -12.930212 10.824676 26.057674 8.641529 0.000001 -0.000001 0.000000 13.985153 1.290567 -55.047336 0.371068 1.161940 -65.457473 -0.000002 -0.000001 -0.000002 7.465876 1.197220 -63.754714 1.806390 1.476409 -64.514197 -0.000000 -0.000001 -0.000000 8.571858 2.201298 -75.001331 -0.208877 1.005568 -57.694594 -0.000001 0.000001 -0.000004 9.971804 13.637603 -84.708450 0.873419 0.061192 -64.421593 -0.000001 0.000001 -0.000000 0.000002 -0.000000 0.000001 4.852109 7.875467 5.834441 -0.731464 -2.101493 61.529971 11.542484 18.958857 -4.028572 -0.441492 6.372631 5.804623 15.788515 -2.734473 -17.205861 -2.008222 -31.386399 7.386923 0.000000 -0.000002 -0.000001 2.373890 -3.647532 8.813139 -2.147530 -2.473427 19.250770 -0.000000 0.000000 0.000000 -1.988700 -5.692537 13.987982 0.282491 -5.092159 27.565995 -0.000000 0.000000 -0.000000 -3.250492 -8.551016 12.097802 4.041621 -4.063505 33.840869 -0.000002 -0.000001 0.000000 -6.473460 -11.337016 23.588168 10.719576 -2.559013 35.400724 -0.000000 -0.000001 0.000000 0.000000 0.000000 -0.000002 -0.000000 0.000002 -0.000000 -0.000000 0.000002 -0.000000 -0.000000 0.000002 -0.000000 -0.000000 0.000002 -0.000000 -0.000000 0.000002 -0.000001 -0.000000 0.000005 -0.000001 -0.000000 0.000002 -0.000000 -0.000000 0.000002 -0.000001 -0.000000 0.000005 -0.000001 -0.000000 -0.000001 -0.000000 -0.000000 -0.000001 -0.000000 -0.000000 -0.000002 0.000000 
0.688268 81.793091 -1.037193 3.034806 -28.502094 1.044296 0.000000 -0.000001 0.000000 -18.541051 18.209096 11.162619 17.552408 13.465388 -0.943840 -1.634682 -4.988614 -4.837438 -0.000000 -0.000000 -0.000000 -0.000000 -0.000000 -0.000000 -0.000000 -0.000000 0.000000 -8.854888 -1.692267 -8.918852 11.348743 8.774523 0.586847 -5.846331 -0.808612 7.555525 -0.000000 -0.000002 0.000000 -0.000000 -0.000002 0.000000 0.000000 -0.000002 -0.000000 7.720323 -0.326156 -2.607081 1.037691 -0.825892 2.332715 1.046382 -0.551330 2.393829 -4.158288 18.277615 -6.094378 -6.212595 13.365645 0.304792 0.000000 -0.000000 -0.000000 0.000000 -0.000000 -0.000000 0.000000 -0.000000 -0.000000 -0.122211 -7.332439 -0.371026 -55.212971 1.531639 -40.105597 9.829921 -65.922616 11.210566 -50.174587 12.301551 4.331391 17.542463 -5.723964 -12.930229 10.824841 26.058107 8.641554 -0.000001 -0.000001 0.000001 13.985201 1.291152 -55.047093 0.371056 1.161948 -65.456988 -0.000002 0.000000 -0.000002 7.465674 1.197343 -63.754516 1.806375 1.476432 -64.513951 0.000000 -0.000000 -0.000002 8.571852 2.201200 -75.001611 -0.208868 1.005567 -57.694902 -0.000001 -0.000002 -0.000003 9.972040 13.637610 -84.708675 0.873453 0.061206 -64.423075 0.000001 0.000000 -0.000004 -0.000001 -0.000000 0.000000 4.844677 7.972239 5.880412 -0.550618 -2.122584 61.472836 11.675093 19.081201 -4.071066 -0.420796 6.035001 5.735715 15.788515 -2.734473 -17.205861 -1.904613 -31.534553 7.401394 0.000000 -0.000001 0.000001 2.373492 -3.651113 8.990287 -2.147580 -2.473566 19.564585 -0.000001 0.000000 0.000002 -1.987691 -5.695489 14.164836 0.282659 -5.094231 27.879627 -0.000000 0.000000 -0.000000 -3.251449 -8.554754 12.274433 4.040892 -4.063628 34.154699 -0.000002 -0.000001 0.000002 -6.473497 -11.338850 23.764952 10.719658 -2.559133 35.714352 -0.000001 -0.000000 -0.000002 -0.000000 0.000000 -0.000000 0.000001 -0.000001 0.000001 0.000001 -0.000001 0.000001 0.000001 -0.000001 0.000001 0.000001 -0.000001 0.000001 0.000001 -0.000001 0.000001 0.000000 -0.000002 0.000001 0.000001 -0.000001 0.000001 0.000001 -0.000001 0.000001 0.000000 -0.000002 0.000001 -0.000000 0.000001 -0.000000 -0.000000 0.000001 -0.000000 0.000000 -0.000001 0.000000 
